<svg width="121" height="22" viewBox="0 0 121 22" fill="none" xmlns="http://www.w3.org/2000/svg">
<path d="M12.2256 7.48273C12.1827 7.54583 12.1569 7.61873 12.1504 7.69433C12.1439 7.77016 12.1569 7.84615 12.1879 7.91516L12.1887 7.91683C12.3046 8.17114 12.4775 8.37745 12.7099 8.52083L12.7104 8.52112L16.1292 10.1147L15.9689 10.4087C15.9689 10.4087 15.9689 10.4088 15.969 10.4088C16.7091 10.8123 17.4088 11.3522 17.8256 11.9909C18.2318 12.6133 18.3725 13.3288 18.0139 14.1516L18.0139 14.1518C17.9441 14.3122 17.8058 14.5521 17.587 14.8792L17.5867 14.8797C17.5736 14.8994 17.5506 14.9357 17.5341 14.9813C17.5259 15.004 17.5129 15.0463 17.5122 15.1001C17.5114 15.1568 17.5248 15.2461 17.593 15.3269C17.6613 15.4078 17.7472 15.4361 17.8035 15.4448C17.8568 15.4531 17.9008 15.4472 17.9246 15.4429C17.9724 15.4342 18.0121 15.4175 18.0337 15.4078L18.034 15.4077C19.6358 14.6863 21.0703 13.7179 22.3359 12.5032L22.3361 12.5031C22.8868 11.974 23.5061 11.1975 23.884 10.35C24.2599 9.50727 24.4229 8.53004 23.942 7.66466L23.9419 7.66449C23.1813 6.29777 21.8212 5.67541 20.3445 5.39288L20.3444 5.39286C17.8863 4.92325 15.5333 5.29572 13.2982 6.50533C12.8652 6.73881 12.507 7.06632 12.2256 7.48273ZM12.2256 7.48273C12.2257 7.48251 12.2259 7.48229 12.226 7.48207L12.5026 7.67088L12.2251 7.48339C12.2253 7.48317 12.2254 7.48295 12.2256 7.48273ZM9.8688 7.76699C9.87535 7.69811 9.86357 7.6287 9.83463 7.56581C9.80569 7.50293 9.76064 7.44883 9.70407 7.40899C9.6475 7.36915 9.58139 7.34497 9.51243 7.33891C9.44347 7.33286 9.37415 7.34516 9.31151 7.37452L9.31105 7.37474C7.42668 8.26164 5.19159 9.74602 4.04447 11.5961L4.04441 11.5962C3.54767 12.3979 3.27333 13.297 3.36112 14.1515C3.45036 15.02 3.91135 15.809 4.81557 16.3635C7.53469 18.0313 10.9821 17.1827 13.5795 15.7827C13.8579 15.633 14.5554 15.1939 15.0895 14.684C15.3532 14.4323 15.6071 14.1355 15.7336 13.8242C15.7985 13.6645 15.8366 13.4846 15.8106 13.2976C15.7837 13.105 15.6925 12.9322 15.5443 12.7885L15.5442 12.7884C15.0541 12.3136 14.401 11.8851 13.739 11.4985C13.3401 11.2656 12.9191 11.0376 12.5225 10.8228C12.268 10.685 12.0236 10.5526 11.8014 10.4278L11.8014 10.4278C10.6454 9.77867 9.75087 9.01318 9.8688 7.76699ZM9.8688 7.76699L9.53537 7.73531M9.8688 7.76699C9.86881 7.76695 9.86881 7.76692 9.86881 7.76688L9.53537 7.73531M9.53537 7.73531C9.53219 7.76889 9.52965 7.80216 9.52773 7.83511L9.45368 7.67779C9.46287 7.67348 9.47303 7.67168 9.48313 7.67257C9.49324 7.67345 9.50293 7.677 9.51122 7.68284C9.51952 7.68868 9.52612 7.69661 9.53036 7.70583C9.5346 7.71504 9.53633 7.72521 9.53537 7.73531ZM20.4386 2.76639L20.6163 3.05026L5.97362 19.3905C5.98944 19.3848 6.00524 19.3791 6.02103 19.3734C6.06988 19.3556 6.1186 19.3374 6.16719 19.3189C6.16753 19.3188 6.16787 19.3187 6.16821 19.3185C6.18378 19.3126 6.19933 19.3067 6.21488 19.3007L6.33472 19.6134C6.33496 19.6133 6.3352 19.6132 6.33544 19.6131C6.41484 19.5826 6.48256 19.5277 6.52893 19.4563C6.57545 19.3847 6.59807 19.3002 6.59359 19.215C6.5891 19.1297 6.55773 19.0481 6.50396 18.9818C6.45059 18.916 6.37789 18.8686 6.29616 18.8464C6.16051 18.8094 6.02681 18.7738 5.89484 18.7387C5.01648 18.505 4.21474 18.2917 3.42303 17.805L3.42287 17.8049C1.87387 16.8537 0.70879 15.1285 0.984231 13.3187L0.984259 13.3185C1.21279 11.8115 2.24143 10.3165 3.33055 9.18099L3.33078 9.18075C3.37501 9.13455 3.4286 9.09191 3.49847 9.03886C3.50475 9.03409 3.51133 9.02912 3.51816 9.02396C3.57784 8.97888 3.65667 8.91932 3.72218 8.85389C5.62469 6.95814 7.94746 5.70216 10.2469 4.68794C11.2646 4.2394 12.4135 3.84044 13.695 3.49198C16.4278 2.74907 19.2274 2.25313 22.0386 1.81179L22.0391 1.81172C22.2483 1.77855 22.4506 1.72396 22.6329 1.67479L22.6624 1.66682C22.8586 1.61397 23.0328 1.56846 23.2065 1.54471C23.3791 1.52141 23.5517 1.49825 23.7244 1.47524C23.2777 1.63976 22.8466 1.80304 22.4435 1.95568C21.9549 2.14072 21.5075 2.31014 21.1238 2.44722C20.8594 2.54158 20.6291 2.64707 20.4386 2.76639ZM20.6739 2.79039C20.672 2.79016 20.6725 2.79012 20.6749 2.79051L20.6739 2.79039ZM20.7932 3.33468L20.7941 3.33414C20.792 3.33554 20.7916 3.33571 20.7932 3.33468ZM9.62458 19.5166C7.8797 19.7616 6.13371 19.9979 4.38663 20.2255L22.4719 3.78672C25.3321 4.70942 26.686 8.00522 25.7627 10.7666C25.0162 12.9972 23.1073 14.678 20.8089 15.9613C18.5156 17.2417 15.8844 18.0984 13.7714 18.7049L13.7713 18.7049C12.4567 19.0824 11.018 19.3215 9.62469 19.5166L9.62458 19.5166ZM9.20193 7.70374C9.20189 7.70411 9.20186 7.70449 9.20182 7.70486C9.20186 7.70445 9.2019 7.70405 9.20194 7.70364L9.20193 7.70374Z" fill="#242424" stroke="#F5F5F5" stroke-width="0.66987"/>
<path d="M12.8866 8.2359C12.7163 8.13082 12.5855 7.97818 12.4942 7.77798C12.4865 7.76075 12.4833 7.74187 12.4849 7.72314C12.4865 7.7044 12.4929 7.68644 12.5034 7.67098C12.7558 7.29744 13.0741 7.00711 13.4584 6.80001C15.6268 5.62645 17.9014 5.2671 20.2823 5.72195C21.7136 5.99578 22.9585 6.58486 23.65 7.82746C24.4646 9.29326 23.161 11.2469 22.1048 12.2617C20.8668 13.4498 19.4643 14.3967 17.8972 15.1024C17.8443 15.1262 17.8339 15.1139 17.8662 15.0656C18.0878 14.7342 18.2397 14.4742 18.3218 14.2855C19.141 12.4055 17.6602 10.9489 16.13 10.1148C15.0331 9.51724 13.952 8.89095 12.8866 8.2359Z" fill="#BF1A1A"/>
<path d="M11.6382 10.7199C12.8141 11.3804 14.3915 12.1374 15.3119 13.0291C16.1047 13.7977 13.9416 15.2082 13.4216 15.4878C10.8559 16.8708 7.55377 17.6497 4.99149 16.0781C3.3554 15.0748 3.39107 13.288 4.32992 11.7727C5.4264 10.0043 7.59174 8.55461 9.45448 7.67789C9.46367 7.67358 9.47383 7.67178 9.48393 7.67267C9.49404 7.67355 9.50373 7.6771 9.51202 7.68294C9.52032 7.68878 9.52692 7.69671 9.53116 7.70593C9.5354 7.71514 9.53713 7.72531 9.53617 7.73541C9.39695 9.20582 10.4785 10.0687 11.6382 10.7199Z" fill="#BF1A1A"/>
<mask id="path-3-inside-1_3308_4484" fill="white">
<path d="M49.6429 13.9391L53.2244 7.66281C53.2809 7.56429 53.3625 7.48256 53.4608 7.42595C53.559 7.36934 53.6704 7.33989 53.7836 7.34061L56.3666 7.36458C56.4369 7.36538 56.5059 7.38417 56.567 7.41916C56.6281 7.45415 56.6792 7.50417 56.7155 7.56448C56.7518 7.62478 56.772 7.69337 56.7743 7.76371C56.7767 7.83405 56.7609 7.90382 56.7287 7.96638L55.5251 10.2831C55.5166 10.2998 55.5124 10.3184 55.513 10.3372C55.5136 10.356 55.5189 10.3744 55.5285 10.3906C55.538 10.4067 55.5515 10.4203 55.5677 10.4299C55.5838 10.4395 55.6022 10.4448 55.621 10.4455L58.6699 10.5627C58.7969 10.5676 58.9207 10.6043 59.0299 10.6693C59.1392 10.7344 59.2304 10.8258 59.2952 10.9351C59.3601 11.0444 59.3965 11.1683 59.4013 11.2953C59.406 11.4223 59.3789 11.5485 59.3223 11.6624L58.156 14.0137C58.1081 14.1078 58.1373 14.1539 58.2439 14.1522L61.1144 14.1042C61.3113 14.1011 61.5041 14.0473 61.6743 13.9479C61.8445 13.8486 61.9864 13.7071 62.0863 13.537C62.5586 12.7258 63.0317 11.8896 63.5056 11.0287C63.9956 10.1366 66.0859 10.4162 66.9141 10.6452C66.9628 10.6585 67.0081 10.6824 67.0465 10.7152C67.085 10.7479 67.1157 10.7888 67.1366 10.8348C67.1574 10.8809 67.1679 10.9309 67.1672 10.9815C67.1664 11.032 67.1546 11.0818 67.1324 11.1272L65.7478 13.9445C65.7105 14.019 65.7336 14.0607 65.817 14.0696C67.2975 14.2347 69.2947 14.4611 70.0243 13.1962C71.1267 11.2896 72.2069 9.37147 73.265 7.4418C73.3022 7.37434 73.3599 7.34061 73.438 7.34061L76.2553 7.36458C76.3331 7.36511 76.4094 7.38554 76.477 7.42392C76.5446 7.46229 76.6013 7.51733 76.6416 7.5838C76.6819 7.65027 76.7045 7.72596 76.7073 7.80365C76.71 7.88134 76.6929 7.95844 76.6574 8.02762L75.5124 10.2697C75.4538 10.3834 75.4893 10.4348 75.6189 10.4242C76.4124 10.3496 79.3149 10.1473 79.3575 11.4201C79.3842 12.2216 78.0581 13.2175 77.5548 13.8007C77.5345 13.824 77.5213 13.8527 77.5168 13.8832C77.5122 13.9138 77.5165 13.9451 77.529 13.9733C77.5416 14.0016 77.562 14.0256 77.5878 14.0427C77.6136 14.0597 77.6437 14.0691 77.6746 14.0696L81.4985 14.1628C81.5997 14.1664 81.6769 14.1238 81.7301 14.035C82.6888 12.424 83.5142 10.6718 85.6791 10.5014C87.6763 10.3434 89.653 10.4002 91.6093 10.6718C91.6634 10.6797 91.7148 10.7005 91.7591 10.7326C91.8034 10.7646 91.8392 10.8069 91.8633 10.8557C91.8875 10.9045 91.8993 10.9584 91.8977 11.0127C91.8961 11.067 91.8812 11.12 91.8543 11.1671L90.2938 13.9258C90.2829 13.9452 90.2772 13.9669 90.277 13.9891C90.2769 14.0113 90.2824 14.0332 90.2931 14.0526C90.3037 14.0721 90.3192 14.0885 90.3379 14.1003C90.3567 14.1122 90.3782 14.119 90.4004 14.1202C91.3909 14.177 92.3895 14.1548 93.3961 14.0536C94.9778 13.8939 94.8367 10.5121 97.0202 10.4189C99.0297 10.3336 101.035 10.3807 103.036 10.56C103.115 10.5671 103.185 10.599 103.243 10.6559L103.768 11.1831C103.823 11.2381 103.834 11.3003 103.802 11.3695L102.594 13.9445C102.528 14.0847 102.572 14.1548 102.727 14.1548L105.85 14.1468C105.966 14.1468 106.054 14.0989 106.116 14.003C107.709 11.5772 108.167 10.4055 111.445 10.4082C112.977 10.41 114.484 10.4819 115.966 10.6239C116.018 10.6291 116.068 10.6469 116.112 10.6757C116.156 10.7046 116.192 10.7437 116.217 10.7895C116.242 10.8354 116.256 10.8868 116.257 10.9391C116.257 10.9914 116.246 11.0432 116.222 11.0899L114.776 13.9631C114.772 13.9723 114.77 13.9823 114.771 13.9922C114.771 14.0021 114.774 14.0117 114.779 14.0201C114.784 14.0285 114.791 14.0355 114.799 14.0404C114.808 14.0453 114.817 14.048 114.827 14.0483C116.462 14.1246 118.099 14.1593 119.74 14.1522C120.132 14.1504 120.514 14.2116 120.885 14.3359C120.909 14.3441 120.931 14.3577 120.949 14.3756C120.967 14.3935 120.981 14.4153 120.99 14.4393C120.999 14.4633 121.002 14.489 120.999 14.5144C120.997 14.5399 120.988 14.5644 120.975 14.5862L120.16 15.8963C120.107 15.9815 120.032 16.0233 119.934 16.0215C113.767 15.938 107.6 15.899 101.433 15.9043C100.36 15.9061 99.3191 15.8431 98.309 15.7153C98.2382 15.7061 98.1711 15.6787 98.114 15.6357C98.057 15.5928 98.0121 15.5359 97.9836 15.4704C97.9552 15.405 97.9442 15.3332 97.9518 15.2623C97.9593 15.1913 97.9852 15.1235 98.0267 15.0655C98.5717 14.3075 98.996 13.4891 99.2996 12.6104C99.3108 12.5745 99.3096 12.5358 99.2962 12.5007C99.2828 12.4655 99.258 12.4359 99.2257 12.4166C99.1935 12.3972 99.1557 12.3892 99.1183 12.394C99.081 12.3987 99.0464 12.4158 99.02 12.4426C98.2282 13.2894 97.5474 14.2525 96.9776 15.3318C96.8018 15.6647 96.1814 15.8883 95.7607 15.899C90.2397 16.0144 84.7187 16.0499 79.1978 16.0055C77.3249 15.9895 75.8603 15.9256 74.8041 15.8138C73.8907 15.7179 73.6963 14.8871 73.3209 14.2267C73.2499 14.1025 73.1931 14.1087 73.1505 14.2454C72.57 16.12 71.3344 15.9522 69.7633 15.9736C64.4501 16.0481 59.1528 16.0206 53.8715 15.891C53.8194 15.8895 53.7686 15.8751 53.7236 15.8489C53.6786 15.8228 53.6409 15.7857 53.6139 15.7413C53.5869 15.6968 53.5714 15.6462 53.569 15.5942C53.5665 15.5422 53.5772 15.4905 53.5999 15.4436L54.9393 12.6956C54.9535 12.6676 54.9581 12.6358 54.9523 12.6051C54.9465 12.5744 54.9307 12.5464 54.9072 12.5253C54.8837 12.5042 54.8539 12.4913 54.8222 12.4884C54.7905 12.4855 54.7587 12.4928 54.7316 12.5092C52.9954 13.585 53.3868 15.8803 50.9716 15.9256C46.3773 16.0126 41.7839 16.0419 37.1914 16.0135C36.1245 16.0064 35.0594 15.9496 33.996 15.8431C33.5646 15.8005 33.4111 15.5439 33.5353 15.0735C34.2516 12.3814 35.7908 12.9912 37.9796 13.0045C38.0003 13.0044 38.0208 13.0094 38.0391 13.019C38.0575 13.0286 38.0732 13.0425 38.085 13.0595C38.0968 13.0766 38.1043 13.0962 38.1068 13.1168C38.1093 13.1373 38.1068 13.1582 38.0995 13.1776L37.7799 14.051C37.7355 14.1717 37.7781 14.24 37.9077 14.256C39.5614 14.4584 42.613 14.517 42.6263 12.3441C42.6281 11.9979 42.4568 11.8337 42.1124 11.8515C40.2572 11.9456 38.4394 11.871 36.6589 11.6278C36.1423 11.5559 35.8893 10.9008 36.0065 10.3896C36.8745 6.55241 39.4974 6.02251 43.0577 6.00387C44.208 5.99854 46.9294 5.81747 47.6537 6.45122C47.7141 6.50271 47.7443 6.5675 47.7443 6.64561C47.7496 9.00755 45.2705 8.79985 43.5476 8.60546C43.4376 8.59304 43.3825 8.53179 43.3825 8.42173V8.02762C43.3825 7.96194 43.3497 7.92555 43.284 7.91845C41.8061 7.77732 40.6318 7.96105 40.3203 9.3697C40.3102 9.414 40.3097 9.45993 40.3187 9.50446C40.3276 9.54899 40.3459 9.59112 40.3723 9.62808C40.3987 9.66505 40.4327 9.696 40.4719 9.71894C40.5111 9.74187 40.5547 9.75625 40.5999 9.76114C42.0556 9.92446 43.5166 10.0239 44.9829 10.0594C48.2689 10.1419 46.8575 12.3734 45.8856 13.9658C45.827 14.0634 45.8545 14.1113 45.9682 14.1096L49.4405 14.0563C49.482 14.0555 49.5225 14.0442 49.5579 14.0237C49.5934 14.0032 49.6226 13.9741 49.6429 13.9391ZM85.8191 14.1102C85.897 14.1639 86.0408 14.1152 86.219 13.9748C86.3971 13.8344 86.595 13.6138 86.769 13.3615C86.8552 13.2366 86.933 13.1077 86.9978 12.9821C87.0627 12.8565 87.1134 12.7367 87.147 12.6295C87.1807 12.5224 87.1967 12.43 87.194 12.3576C87.1914 12.2852 87.1701 12.2343 87.1316 12.2076C87.0537 12.1539 86.9098 12.2026 86.7317 12.343C86.5535 12.4834 86.3557 12.704 86.1816 12.9563C86.0954 13.0812 86.0177 13.2102 85.9528 13.3358C85.888 13.4614 85.8373 13.5812 85.8036 13.6883C85.7699 13.7955 85.754 13.8879 85.7566 13.9602C85.7593 14.0326 85.7805 14.0836 85.8191 14.1102ZM110.272 14.0949C110.348 14.1457 110.487 14.0958 110.658 13.9562C110.828 13.8166 111.017 13.5987 111.182 13.3505C111.347 13.1023 111.475 12.844 111.537 12.6326C111.6 12.4211 111.592 12.2738 111.515 12.223C111.439 12.1722 111.3 12.222 111.129 12.3616C110.959 12.5012 110.77 12.7191 110.605 12.9674C110.44 13.2156 110.313 13.4738 110.25 13.6853C110.187 13.8967 110.195 14.0441 110.272 14.0949ZM74.8329 12.6003C74.8208 12.5831 74.7983 12.5736 74.7667 12.5722C74.735 12.5707 74.6949 12.5775 74.6486 12.592C74.6022 12.6065 74.5506 12.6286 74.4966 12.6568C74.4426 12.6851 74.3873 12.7191 74.3339 12.7568C74.2259 12.8329 74.1321 12.9196 74.0731 12.998C74.0141 13.0763 73.9946 13.1397 74.019 13.1743C74.0311 13.1915 74.0536 13.201 74.0853 13.2025C74.1169 13.2039 74.157 13.1971 74.2033 13.1826C74.2497 13.1681 74.3013 13.1461 74.3553 13.1178C74.4093 13.0895 74.4646 13.0556 74.5181 13.0179C74.626 12.9418 74.7198 12.855 74.7788 12.7767C74.8378 12.6984 74.8573 12.6349 74.8329 12.6003Z"/>
</mask>
<path d="M49.6429 13.9391L53.2244 7.66281C53.2809 7.56429 53.3625 7.48256 53.4608 7.42595C53.559 7.36934 53.6704 7.33989 53.7836 7.34061L56.3666 7.36458C56.4369 7.36538 56.5059 7.38417 56.567 7.41916C56.6281 7.45415 56.6792 7.50417 56.7155 7.56448C56.7518 7.62478 56.772 7.69337 56.7743 7.76371C56.7767 7.83405 56.7609 7.90382 56.7287 7.96638L55.5251 10.2831C55.5166 10.2998 55.5124 10.3184 55.513 10.3372C55.5136 10.356 55.5189 10.3744 55.5285 10.3906C55.538 10.4067 55.5515 10.4203 55.5677 10.4299C55.5838 10.4395 55.6022 10.4448 55.621 10.4455L58.6699 10.5627C58.7969 10.5676 58.9207 10.6043 59.0299 10.6693C59.1392 10.7344 59.2304 10.8258 59.2952 10.9351C59.3601 11.0444 59.3965 11.1683 59.4013 11.2953C59.406 11.4223 59.3789 11.5485 59.3223 11.6624L58.156 14.0137C58.1081 14.1078 58.1373 14.1539 58.2439 14.1522L61.1144 14.1042C61.3113 14.1011 61.5041 14.0473 61.6743 13.9479C61.8445 13.8486 61.9864 13.7071 62.0863 13.537C62.5586 12.7258 63.0317 11.8896 63.5056 11.0287C63.9956 10.1366 66.0859 10.4162 66.9141 10.6452C66.9628 10.6585 67.0081 10.6824 67.0465 10.7152C67.085 10.7479 67.1157 10.7888 67.1366 10.8348C67.1574 10.8809 67.1679 10.9309 67.1672 10.9815C67.1664 11.032 67.1546 11.0818 67.1324 11.1272L65.7478 13.9445C65.7105 14.019 65.7336 14.0607 65.817 14.0696C67.2975 14.2347 69.2947 14.4611 70.0243 13.1962C71.1267 11.2896 72.2069 9.37147 73.265 7.4418C73.3022 7.37434 73.3599 7.34061 73.438 7.34061L76.2553 7.36458C76.3331 7.36511 76.4094 7.38554 76.477 7.42392C76.5446 7.46229 76.6013 7.51733 76.6416 7.5838C76.6819 7.65027 76.7045 7.72596 76.7073 7.80365C76.71 7.88134 76.6929 7.95844 76.6574 8.02762L75.5124 10.2697C75.4538 10.3834 75.4893 10.4348 75.6189 10.4242C76.4124 10.3496 79.3149 10.1473 79.3575 11.4201C79.3842 12.2216 78.0581 13.2175 77.5548 13.8007C77.5345 13.824 77.5213 13.8527 77.5168 13.8832C77.5122 13.9138 77.5165 13.9451 77.529 13.9733C77.5416 14.0016 77.562 14.0256 77.5878 14.0427C77.6136 14.0597 77.6437 14.0691 77.6746 14.0696L81.4985 14.1628C81.5997 14.1664 81.6769 14.1238 81.7301 14.035C82.6888 12.424 83.5142 10.6718 85.6791 10.5014C87.6763 10.3434 89.653 10.4002 91.6093 10.6718C91.6634 10.6797 91.7148 10.7005 91.7591 10.7326C91.8034 10.7646 91.8392 10.8069 91.8633 10.8557C91.8875 10.9045 91.8993 10.9584 91.8977 11.0127C91.8961 11.067 91.8812 11.12 91.8543 11.1671L90.2938 13.9258C90.2829 13.9452 90.2772 13.9669 90.277 13.9891C90.2769 14.0113 90.2824 14.0332 90.2931 14.0526C90.3037 14.0721 90.3192 14.0885 90.3379 14.1003C90.3567 14.1122 90.3782 14.119 90.4004 14.1202C91.3909 14.177 92.3895 14.1548 93.3961 14.0536C94.9778 13.8939 94.8367 10.5121 97.0202 10.4189C99.0297 10.3336 101.035 10.3807 103.036 10.56C103.115 10.5671 103.185 10.599 103.243 10.6559L103.768 11.1831C103.823 11.2381 103.834 11.3003 103.802 11.3695L102.594 13.9445C102.528 14.0847 102.572 14.1548 102.727 14.1548L105.85 14.1468C105.966 14.1468 106.054 14.0989 106.116 14.003C107.709 11.5772 108.167 10.4055 111.445 10.4082C112.977 10.41 114.484 10.4819 115.966 10.6239C116.018 10.6291 116.068 10.6469 116.112 10.6757C116.156 10.7046 116.192 10.7437 116.217 10.7895C116.242 10.8354 116.256 10.8868 116.257 10.9391C116.257 10.9914 116.246 11.0432 116.222 11.0899L114.776 13.9631C114.772 13.9723 114.77 13.9823 114.771 13.9922C114.771 14.0021 114.774 14.0117 114.779 14.0201C114.784 14.0285 114.791 14.0355 114.799 14.0404C114.808 14.0453 114.817 14.048 114.827 14.0483C116.462 14.1246 118.099 14.1593 119.74 14.1522C120.132 14.1504 120.514 14.2116 120.885 14.3359C120.909 14.3441 120.931 14.3577 120.949 14.3756C120.967 14.3935 120.981 14.4153 120.99 14.4393C120.999 14.4633 121.002 14.489 120.999 14.5144C120.997 14.5399 120.988 14.5644 120.975 14.5862L120.16 15.8963C120.107 15.9815 120.032 16.0233 119.934 16.0215C113.767 15.938 107.6 15.899 101.433 15.9043C100.36 15.9061 99.3191 15.8431 98.309 15.7153C98.2382 15.7061 98.1711 15.6787 98.114 15.6357C98.057 15.5928 98.0121 15.5359 97.9836 15.4704C97.9552 15.405 97.9442 15.3332 97.9518 15.2623C97.9593 15.1913 97.9852 15.1235 98.0267 15.0655C98.5717 14.3075 98.996 13.4891 99.2996 12.6104C99.3108 12.5745 99.3096 12.5358 99.2962 12.5007C99.2828 12.4655 99.258 12.4359 99.2257 12.4166C99.1935 12.3972 99.1557 12.3892 99.1183 12.394C99.081 12.3987 99.0464 12.4158 99.02 12.4426C98.2282 13.2894 97.5474 14.2525 96.9776 15.3318C96.8018 15.6647 96.1814 15.8883 95.7607 15.899C90.2397 16.0144 84.7187 16.0499 79.1978 16.0055C77.3249 15.9895 75.8603 15.9256 74.8041 15.8138C73.8907 15.7179 73.6963 14.8871 73.3209 14.2267C73.2499 14.1025 73.1931 14.1087 73.1505 14.2454C72.57 16.12 71.3344 15.9522 69.7633 15.9736C64.4501 16.0481 59.1528 16.0206 53.8715 15.891C53.8194 15.8895 53.7686 15.8751 53.7236 15.8489C53.6786 15.8228 53.6409 15.7857 53.6139 15.7413C53.5869 15.6968 53.5714 15.6462 53.569 15.5942C53.5665 15.5422 53.5772 15.4905 53.5999 15.4436L54.9393 12.6956C54.9535 12.6676 54.9581 12.6358 54.9523 12.6051C54.9465 12.5744 54.9307 12.5464 54.9072 12.5253C54.8837 12.5042 54.8539 12.4913 54.8222 12.4884C54.7905 12.4855 54.7587 12.4928 54.7316 12.5092C52.9954 13.585 53.3868 15.8803 50.9716 15.9256C46.3773 16.0126 41.7839 16.0419 37.1914 16.0135C36.1245 16.0064 35.0594 15.9496 33.996 15.8431C33.5646 15.8005 33.4111 15.5439 33.5353 15.0735C34.2516 12.3814 35.7908 12.9912 37.9796 13.0045C38.0003 13.0044 38.0208 13.0094 38.0391 13.019C38.0575 13.0286 38.0732 13.0425 38.085 13.0595C38.0968 13.0766 38.1043 13.0962 38.1068 13.1168C38.1093 13.1373 38.1068 13.1582 38.0995 13.1776L37.7799 14.051C37.7355 14.1717 37.7781 14.24 37.9077 14.256C39.5614 14.4584 42.613 14.517 42.6263 12.3441C42.6281 11.9979 42.4568 11.8337 42.1124 11.8515C40.2572 11.9456 38.4394 11.871 36.6589 11.6278C36.1423 11.5559 35.8893 10.9008 36.0065 10.3896C36.8745 6.55241 39.4974 6.02251 43.0577 6.00387C44.208 5.99854 46.9294 5.81747 47.6537 6.45122C47.7141 6.50271 47.7443 6.5675 47.7443 6.64561C47.7496 9.00755 45.2705 8.79985 43.5476 8.60546C43.4376 8.59304 43.3825 8.53179 43.3825 8.42173V8.02762C43.3825 7.96194 43.3497 7.92555 43.284 7.91845C41.8061 7.77732 40.6318 7.96105 40.3203 9.3697C40.3102 9.414 40.3097 9.45993 40.3187 9.50446C40.3276 9.54899 40.3459 9.59112 40.3723 9.62808C40.3987 9.66505 40.4327 9.696 40.4719 9.71894C40.5111 9.74187 40.5547 9.75625 40.5999 9.76114C42.0556 9.92446 43.5166 10.0239 44.9829 10.0594C48.2689 10.1419 46.8575 12.3734 45.8856 13.9658C45.827 14.0634 45.8545 14.1113 45.9682 14.1096L49.4405 14.0563C49.482 14.0555 49.5225 14.0442 49.5579 14.0237C49.5934 14.0032 49.6226 13.9741 49.6429 13.9391ZM85.8191 14.1102C85.897 14.1639 86.0408 14.1152 86.219 13.9748C86.3971 13.8344 86.595 13.6138 86.769 13.3615C86.8552 13.2366 86.933 13.1077 86.9978 12.9821C87.0627 12.8565 87.1134 12.7367 87.147 12.6295C87.1807 12.5224 87.1967 12.43 87.194 12.3576C87.1914 12.2852 87.1701 12.2343 87.1316 12.2076C87.0537 12.1539 86.9098 12.2026 86.7317 12.343C86.5535 12.4834 86.3557 12.704 86.1816 12.9563C86.0954 13.0812 86.0177 13.2102 85.9528 13.3358C85.888 13.4614 85.8373 13.5812 85.8036 13.6883C85.7699 13.7955 85.754 13.8879 85.7566 13.9602C85.7593 14.0326 85.7805 14.0836 85.8191 14.1102ZM110.272 14.0949C110.348 14.1457 110.487 14.0958 110.658 13.9562C110.828 13.8166 111.017 13.5987 111.182 13.3505C111.347 13.1023 111.475 12.844 111.537 12.6326C111.6 12.4211 111.592 12.2738 111.515 12.223C111.439 12.1722 111.3 12.222 111.129 12.3616C110.959 12.5012 110.77 12.7191 110.605 12.9674C110.44 13.2156 110.313 13.4738 110.25 13.6853C110.187 13.8967 110.195 14.0441 110.272 14.0949ZM74.8329 12.6003C74.8208 12.5831 74.7983 12.5736 74.7667 12.5722C74.735 12.5707 74.6949 12.5775 74.6486 12.592C74.6022 12.6065 74.5506 12.6286 74.4966 12.6568C74.4426 12.6851 74.3873 12.7191 74.3339 12.7568C74.2259 12.8329 74.1321 12.9196 74.0731 12.998C74.0141 13.0763 73.9946 13.1397 74.019 13.1743C74.0311 13.1915 74.0536 13.201 74.0853 13.2025C74.1169 13.2039 74.157 13.1971 74.2033 13.1826C74.2497 13.1681 74.3013 13.1461 74.3553 13.1178C74.4093 13.0895 74.4646 13.0556 74.5181 13.0179C74.626 12.9418 74.7198 12.855 74.7788 12.7767C74.8378 12.6984 74.8573 12.6349 74.8329 12.6003Z" stroke="white" stroke-width="1.12283" mask="url(#path-3-inside-1_3308_4484)"/>
</svg>
