<svg width="27" height="20" viewBox="0 0 27 20" fill="none" xmlns="http://www.w3.org/2000/svg">
<path d="M19.9788 2.65962L19.9788 2.65961C19.9491 2.65589 19.8999 2.64797 19.8486 2.62619C19.8106 2.6101 19.6735 2.5449 19.6359 2.37531C19.5983 2.20546 19.6954 2.08841 19.7232 2.05769C19.7605 2.0165 19.8016 1.98872 19.827 1.97284C20.0127 1.8562 20.2367 1.75323 20.4936 1.6612C20.8656 1.52781 21.2994 1.36289 21.7733 1.18273C22.1425 1.04239 22.536 0.892801 22.9436 0.741657C22.8021 0.760618 22.6607 0.779679 22.5193 0.798842L22.4743 0.466941M19.9788 2.65962L5.78714 18.1761C5.80458 18.1698 5.82201 18.1635 5.83942 18.1572C5.88771 18.1395 5.93588 18.1215 5.98392 18.1032C5.98425 18.1031 5.98458 18.1029 5.98492 18.1028C6.00013 18.097 6.01534 18.0911 6.03053 18.0853L6.15077 18.3979C6.15101 18.3978 6.15125 18.3977 6.1515 18.3976C6.23066 18.367 6.29795 18.3121 6.34392 18.2411C6.39002 18.1699 6.41237 18.0859 6.40793 18.0014C6.4035 17.9168 6.3725 17.8357 6.31915 17.7697C6.26619 17.7041 6.19387 17.6567 6.11234 17.6345C5.98059 17.5984 5.8508 17.5637 5.72271 17.5295C4.87036 17.3019 4.09401 17.0945 3.32718 16.6213L3.32703 16.6212C1.82632 15.6961 0.698196 14.0186 0.964886 12.2597L0.964913 12.2595C1.18632 10.7939 2.18312 9.3393 3.23937 8.23382L3.23959 8.23359C3.28195 8.18917 3.33341 8.14804 3.40119 8.09638C3.40726 8.09175 3.41364 8.08692 3.42026 8.08189C3.47811 8.03803 3.55517 7.9796 3.61924 7.91537C5.46408 6.07005 7.71665 4.84728 9.94738 3.85961C10.9343 3.42296 12.0487 3.03453 13.2917 2.69523C15.9428 1.97177 18.6589 1.48878 21.3866 1.05891L21.3871 1.05884C21.5907 1.02644 21.7876 0.97312 21.9643 0.925251L21.9931 0.917457C22.1836 0.865933 22.3521 0.821781 22.5199 0.798769L22.4743 0.466941M19.9788 2.65962C20.0323 2.66632 20.0858 2.67295 20.1393 2.67957C20.7342 2.75332 21.3179 2.82567 21.8018 2.98213L21.905 2.66349M19.9788 2.65962L20.2921 2.36099C20.2757 2.44435 20.2293 2.4968 20.2197 2.50735C20.1962 2.53337 20.177 2.544 20.1822 2.54079L20.1831 2.54025C20.2656 2.48839 20.3651 2.43644 20.483 2.38506C20.9766 2.44851 21.4754 2.52456 21.905 2.66349M22.4743 0.466941C22.2741 0.494402 22.0781 0.54745 21.8815 0.600676C21.701 0.649542 21.5199 0.698558 21.3345 0.728061L24.4476 0.206144C23.7896 0.290901 23.1319 0.377832 22.4743 0.466941ZM20.0621 1.99495C20.0604 1.99474 20.0609 1.99471 20.0633 1.99509C20.0692 1.99606 20.0869 1.99965 20.11 2.00946C20.1238 2.0153 20.1953 2.04655 20.2462 2.12498C20.1681 2.16235 20.0965 2.20079 20.0314 2.24029L20.0621 1.99495ZM20.0621 1.99495C20.0621 1.99495 20.0621 1.99495 20.0621 1.99494L20.0313 2.2403M20.0621 1.99495L20.0313 2.2403M21.905 2.66349L21.8019 2.98217M21.905 2.66349C24.878 3.62616 26.2512 7.04089 25.3067 9.87623C23.7828 14.4475 17.5643 16.634 13.4525 17.8185C12.1541 18.1928 10.7396 18.4282 9.38427 18.6187L21.8019 2.98217M21.8019 2.98217C24.5709 3.87884 25.884 7.08346 24.9889 9.77037C24.2656 11.9402 22.4155 13.5759 20.1863 14.8252C17.9621 16.0718 15.41 16.906 13.3598 17.4967L13.3597 17.4967C12.0849 17.8642 10.6895 18.097 9.33765 18.287L9.33754 18.287C7.68051 18.5205 6.02246 18.746 4.36339 18.9633L21.8019 2.98217ZM20.0313 2.2403C20.0224 2.24574 20.0135 2.2512 20.0048 2.25668L20.0313 2.2403ZM9.58598 6.85167C9.59245 6.78329 9.58081 6.71436 9.55214 6.65182C9.52347 6.58928 9.47877 6.53532 9.42244 6.4955C9.3661 6.45568 9.30015 6.43143 9.23125 6.42535C9.16234 6.41928 9.09313 6.43162 9.03065 6.46103L9.03019 6.46124C7.20093 7.32549 5.03019 8.77237 3.91575 10.5766L3.9157 10.5767C3.433 11.3587 3.16613 12.2361 3.25153 13.0705C3.33835 13.9188 3.78702 14.6897 4.66705 15.2314C7.31058 16.8591 10.6606 16.0302 13.1819 14.666C13.4527 14.5198 14.1302 14.0917 14.6493 13.5943C14.9055 13.3488 15.1529 13.0587 15.2763 12.7538C15.3397 12.5973 15.377 12.4207 15.3515 12.237C15.3252 12.0477 15.2357 11.8776 15.0906 11.7364L15.0905 11.7363C14.614 11.273 13.9796 10.855 13.3369 10.4784C12.9498 10.2515 12.5409 10.0292 12.1559 9.81985C11.909 9.68564 11.672 9.55676 11.4567 9.43542L11.4567 9.4354C10.3356 8.8035 9.47202 8.06045 9.58598 6.85167ZM9.58598 6.85167L9.25253 6.82011M9.58598 6.85167C9.58598 6.85163 9.58598 6.8516 9.58599 6.85157L9.25253 6.82011M9.25253 6.82011C9.24948 6.85247 9.24703 6.88453 9.24518 6.91629L9.17327 6.76408C9.18218 6.75989 9.19204 6.75813 9.20184 6.759C9.21165 6.75986 9.22105 6.76331 9.2291 6.769C9.23715 6.77469 9.24356 6.78242 9.24767 6.79139C9.25179 6.80037 9.25346 6.81028 9.25253 6.82011ZM12.3272 7.59234L12.3277 7.59264C13.3664 8.23374 14.4205 8.8467 15.49 9.43152C16.2074 9.82407 16.8849 10.349 17.2883 10.9695C17.6811 11.5737 17.8171 12.268 17.4703 13.0668L17.4702 13.067C17.4028 13.2226 17.269 13.4558 17.0567 13.7743L17.0564 13.7747C17.0436 13.7941 17.0208 13.8301 17.0045 13.8755C16.9964 13.898 16.9835 13.9401 16.9828 13.9937C16.982 14.05 16.9953 14.139 17.0632 14.2198C17.1313 14.3008 17.2172 14.3293 17.2737 14.3381C17.3272 14.3464 17.3712 14.3405 17.395 14.3362C17.4427 14.3274 17.4821 14.3107 17.5033 14.3012L17.5036 14.3011C19.059 13.5979 20.4519 12.654 21.6807 11.4701L21.6809 11.47C22.2159 10.954 22.8176 10.1967 23.1849 9.37006C23.55 8.54813 23.7091 7.59355 23.2407 6.74754L23.2406 6.74738C22.5008 5.41286 21.1778 4.80552 19.7431 4.52999L19.743 4.52997C17.3553 4.07207 15.0695 4.4353 12.8988 5.61457C12.4769 5.84282 12.1283 6.16295 11.8544 6.56969C11.8119 6.63237 11.7865 6.70468 11.7801 6.77956C11.7736 6.85467 11.7865 6.92998 11.8171 6.99842L11.8179 7.00009C11.931 7.24907 12.0999 7.45152 12.3272 7.59234ZM26.1327 0.00200396L26.1327 0.00200975L26.1327 0.00200396ZM8.91908 6.78866C8.91904 6.78904 8.91901 6.78941 8.91897 6.78978C8.91901 6.78937 8.91905 6.78897 8.91909 6.78856L8.91908 6.78866Z" fill="#242424" stroke="#F5F5F5" stroke-width="0.66987"/>
<path d="M12.5041 7.30767C12.3389 7.20531 12.212 7.05663 12.1234 6.86163C12.1159 6.84485 12.1128 6.82646 12.1144 6.80821C12.1159 6.78996 12.1221 6.77247 12.1324 6.75741C12.3772 6.39356 12.6861 6.11077 13.059 5.90905C15.1631 4.76595 17.3703 4.41592 19.6805 4.85897C21.0693 5.12569 22.2773 5.69948 22.9483 6.90982C23.7387 8.33758 22.4738 10.2405 21.4489 11.229C20.2477 12.3862 18.8867 13.3086 17.3662 13.9959C17.3148 14.0191 17.3048 14.0071 17.336 13.9601C17.5511 13.6373 17.6985 13.384 17.7781 13.2002C18.573 11.369 17.1362 9.95025 15.6513 9.13775C14.587 8.55574 13.5379 7.94571 12.5041 7.30767Z" fill="#BF1A1A"/>
<path d="M11.2928 9.72723C12.4338 10.3705 13.9644 11.1079 14.8576 11.9765C15.6268 12.7251 13.5279 14.099 13.0233 14.3714C10.5337 15.7184 7.32951 16.4771 4.84323 14.9463C3.25568 13.969 3.29029 12.2286 4.20129 10.7527C5.26524 9.03017 7.36635 7.6181 9.17384 6.76414C9.18276 6.75994 9.19262 6.75819 9.20242 6.75905C9.21223 6.75992 9.22163 6.76337 9.22968 6.76906C9.23773 6.77475 9.24413 6.78247 9.24825 6.79145C9.25236 6.80042 9.25404 6.81033 9.25311 6.82017C9.11802 8.25241 10.1675 9.09292 11.2928 9.72723Z" fill="#BF1A1A"/>
</svg>
